# xmcd
#
# Track frame offsets: 
#        150
#        16384
#        27897
#        42452
#        55830
#        71675
#        87966
#        101254
#        113847
#        130376
#        144803
#        160162
#        172819
#
# Disc length: 2467 seconds
#
# Revision: 0
# Processed by: cddbd v1.5.2PL0 Copyright (c) Steve Scherf et al.
# Submitted via: ExactAudioCopyFreeDBPlugin 1.0
#
DISCID=a109a10d
DTITLE=Jim Ed Brown - In Style Again
DYEAR=2015
DGENRE=Country
TTITLE0=Jim Ed Brown and Bonnie - When The Sun Says Hello To The Mountai
TTITLE0=n
TTITLE1=Jim Ed Brown, Vince Gill and The Whites - Tried and True
TTITLE2=In Style Again
TTITLE3=Watching The World Walking By
TTITLE4=Jim Ed Brown, Vince Gill and The Whites - You Again
TTITLE5=I Love It
TTITLE6=Jim Ed Brown and Helen Cornelius - Don't Let Me Cross Over
TTITLE7=Older Guy
TTITLE8=It's A Good Life
TTITLE9=Lucky Enough
TTITLE10=Laura (Do You Love Me)
TTITLE11=The Last One
TTITLE12=Am I Still Country
EXTD=
EXTT0=
EXTT1=
EXTT2=
EXTT3=
EXTT4=
EXTT5=
EXTT6=
EXTT7=
EXTT8=
EXTT9=
EXTT10=
EXTT11=
EXTT12=
PLAYORDER=
